<?xml version="1.0" encoding="utf-8"?>
<!-- Generator: Adobe Illustrator 25.4.1, SVG Export Plug-In . SVG Version: 6.00 Build 0)  -->
<svg version="1.1" id="Layer_1" xmlns="http://www.w3.org/2000/svg" xmlns:xlink="http://www.w3.org/1999/xlink" x="0px" y="0px"
	 viewBox="0 0 793.12 226.78" style="enable-background:new 0 0 793.12 226.78;" xml:space="preserve">
<style type="text/css">
	.st0{fill:#0D0F1A;}
	.st1{fill:url(#SVGID_1_);}
	.st2{fill:#00F0FF;}
	.st3{fill:#C400FF;}
	.st4{fill:url(#SVGID_00000129910232085747809910000012759010965684387767_);}
	.st5{fill:url(#SVGID_00000098195895762247160780000004341544577352461959_);}
	.st6{fill:#FFFFFF;}
	.st7{fill:url(#SVGID_00000090252846392610942830000017585456875576177040_);}
	.st8{fill:url(#SVGID_00000004538796609981239030000016386391516761692850_);}
	.st9{fill:url(#SVGID_00000085938800807324047030000011492811180359273123_);}
	.st10{fill:url(#SVGID_00000112609280991335218450000000056747614090288793_);}
	.st11{fill:url(#SVGID_00000145758228728768005480000007239992804559857075_);}
	.st12{fill:url(#SVGID_00000072967381716901669640000007185300261031722645_);}
	.st13{fill:url(#SVGID_00000080913611656503320750000002367032393679118741_);}
	.st14{fill:url(#SVGID_00000137131183013230071320000000080685684302805399_);}
	.st15{fill:url(#SVGID_00000143603694915721710900000002440925910183025811_);}
	.st16{fill:url(#SVGID_00000134251878978387356230000004803181691328054689_);}
	.st17{fill:url(#SVGID_00000095335494865502293310000013553532686122964903_);}
</style>
<g>
	<linearGradient id="SVGID_1_" gradientUnits="userSpaceOnUse" x1="41.4746" y1="-3.7199" x2="265.4618" y2="232.1114">
		<stop  offset="0" style="stop-color:#00F0FF"/>
		<stop  offset="0.101" style="stop-color:#0DE0FF"/>
		<stop  offset="0.2975" style="stop-color:#2EB7FF"/>
		<stop  offset="0.57" style="stop-color:#6475FF"/>
		<stop  offset="0.9048" style="stop-color:#AE1BFF"/>
		<stop  offset="1" style="stop-color:#C400FF"/>
	</linearGradient>
	<path class="st1" d="M167.39,103.83l49.9,0.38l68.88,69.97l-49.9-0.39l37.83,38.42h-76.17l-38.39-39.01h-0.01l-67.28-68.36v67.83
		v2.73v36.81L7.28,127.24V14.58h72.23L92.24,27.5L167.39,103.83z M303.19,104.88l-1.86-1.88l-87.05-88.42h-85.23l88.24,89.63
		l84.04,0.66L303.19,104.88z"/>
	<g>
		<g>
			<path class="st6" d="M445.94,53.17c6.94,0,14.31,1.97,20.29,7.04c4.32,3.67,7.52,9.04,8.98,15.32c0.55,2.39,0.73,5.05,0.88,7.59
				c0.44,7.53,0.27,55.59,0.13,62.86h-21.94c0-10.92,0-60.16,0-62.97c-0.06-6.54-1.33-7.83-3.11-9.34
				c-1.77-1.51-4.71-2.51-7.95-2.51H395.8c-3.24,0-6.17,1-7.95,2.51c-1.78,1.51-3.03,2.79-3.11,9.34
				c-0.01,1.02-0.28,62.97-0.28,62.97h-21.81V53.21h21.81v6.37c5.83-4.6,12.87-6.41,19.52-6.41H445.94z"/>
			<path class="st6" d="M582.43,53.17c13.52,0,30.1,9.03,30.1,27.77v37.38c-0.02,18.74-16.58,27.77-30.11,27.77h-62.31
				c-13.53,0-30.37-9.03-30.37-27.77V80.94c0.01-18.74,16.84-27.77,30.37-27.77H582.43z M522.84,71.16
				c-9.18,0-11.32,5.63-11.32,9.77v37.38c0,4.14,2.14,9.77,11.32,9.77h56.86c9.18,0,11.06-5.62,11.06-9.77V80.94
				c0-4.14-1.88-9.77-11.06-9.77H522.84z"/>
			<path class="st6" d="M688.49,53.17c6.95,0,14.32,1.97,20.29,7.04c1.68,1.42,3.18,3.1,4.48,4.99c1.3-1.89,2.8-3.57,4.48-4.99
				c5.98-5.07,13.35-7.04,20.29-7.04h20.15c6.95,0,14.31,1.97,20.3,7.04c4.32,3.67,7.52,9.04,8.97,15.32
				c0.55,2.39,0.73,5.05,0.88,7.59c0.48,8.32,0.24,56.22,0.09,62.86h-21.89c0-11.12,0-59.99,0-62.97c-0.06-6.54-1.33-7.83-3.11-9.34
				c-1.78-1.51-4.71-2.51-7.95-2.51h-25.61c-3.24,0-6.17,1-7.95,2.51c-1.78,1.51-3.03,2.79-3.11,9.34c0,0.42,0,62.57,0,62.97H696.8
				c0-10.92,0-60.16,0-62.97c-0.07-6.54-1.34-7.83-3.12-9.34c-1.78-1.51-4.7-2.51-7.95-2.51h-25.48c-3.24,0-6.17,1-7.95,2.51
				c-1.78,1.51-3.03,2.79-3.11,9.34c-0.01,1.02-0.28,62.97-0.28,62.97H627.1V53.21h21.81v6.37c5.83-4.6,12.87-6.41,19.52-6.41
				H688.49z"/>
		</g>
		<g>
			<g>
				<path class="st6" d="M365.73,157.86v11.75h-2.31v-11.75H365.73z"/>
				<path class="st6" d="M379.89,159.76c0.74,0,1.52,0.21,2.15,0.75c0.46,0.39,0.8,0.96,0.95,1.63c0.06,0.25,0.08,0.53,0.09,0.81
					c0.05,0.8,0.03,5.9,0.01,6.67h-2.33c0-1.16,0-6.38,0-6.68c-0.01-0.69-0.14-0.83-0.33-0.99c-0.19-0.16-0.5-0.27-0.84-0.27h-5.03
					c-0.34,0-0.65,0.11-0.84,0.27c-0.19,0.16-0.32,0.3-0.33,0.99c0,0.11-0.03,6.68-0.03,6.68h-2.31v-9.84h2.31v0.67
					c0.62-0.49,1.37-0.68,2.07-0.68H379.89z"/>
				<path class="st6" d="M397.15,159.76c0.74,0,1.52,0.21,2.15,0.75c0.46,0.39,0.8,0.96,0.95,1.63c0.06,0.25,0.08,0.53,0.09,0.81
					c0.05,0.8,0.03,5.9,0.01,6.67h-2.33c0-1.16,0-6.38,0-6.68c-0.01-0.69-0.14-0.83-0.33-0.99c-0.19-0.16-0.5-0.27-0.84-0.27h-5.03
					c-0.34,0-0.65,0.11-0.84,0.27c-0.19,0.16-0.32,0.3-0.33,0.99c0,0.11-0.03,6.68-0.03,6.68h-2.31v-9.84h2.31v0.67
					c0.62-0.49,1.37-0.68,2.07-0.68H397.15z"/>
				<path class="st6" d="M415.2,159.76c1.44,0,3.19,0.96,3.19,2.95v3.97c0,1.99-1.76,2.95-3.19,2.95h-6.61
					c-1.44,0-3.22-0.96-3.22-2.95v-3.97c0-1.99,1.79-2.95,3.22-2.95H415.2z M408.88,161.67c-0.97,0-1.2,0.6-1.2,1.04v3.97
					c0,0.44,0.23,1.04,1.2,1.04h6.03c0.97,0,1.17-0.6,1.17-1.04v-3.97c0-0.44-0.2-1.04-1.17-1.04H408.88z"/>
				<path class="st6" d="M424.87,159.77l1.81,2.96l1.27,2.09l1.44,2.35l3.18-5.21l1.28-2.09l0.06-0.1h2.71l-1.62,2.65l-1.27,2.09
					l-3.12,5.1h-2.43l-1.37-2.24l-1.28-2.09l-3.37-5.51H424.87z"/>
				<path class="st6" d="M443.65,159.69h6.15c1.44,0,3.19,0.96,3.19,2.95v6.97h-2.31v-0.63c-0.61,0.44-1.37,0.63-2.06,0.63h-5.46
					c-1.43,0-3.19-0.84-3.19-2.97c0-2.13,1.76-3.09,3.19-3.09h5.46c0.69,0,1.45,0.22,2.06,0.69v-1.6c0-0.44-0.2-1.04-1.17-1.04
					h-5.57c-0.97,0-1.17,0.6-1.17,1.04h-2.31C440.46,160.65,442.22,159.69,443.65,159.69L443.65,159.69z M442.45,166.64
					c0,0.58,0.2,1.07,1.17,1.07h5.87c0.97,0,1.17-0.48,1.17-1.07c0-0.58-0.2-1.18-1.17-1.18h-5.87
					C442.65,165.46,442.45,166.06,442.45,166.64z"/>
				<path class="st6" d="M461.32,157.35v2.42h5.93v1.91h-5.93v4.77c0.01,0.69,0.14,0.83,0.33,0.99c0.19,0.16,0.5,0.27,0.84,0.27
					h1.26c0.34,0,0.65-0.11,0.84-0.27c0.17-0.14,0.29-0.27,0.32-0.79h2.3c-0.02,0.18-0.04,0.44-0.08,0.59
					c-0.15,0.67-0.49,1.24-0.95,1.63c-0.63,0.54-1.42,0.75-2.15,0.75h-1.84c-0.74,0-1.52-0.21-2.15-0.75
					c-0.46-0.39-0.8-0.96-0.95-1.63c-0.06-0.25-0.09-0.81-0.09-0.81v-4.76h-1.48v-1.91H459v-2.42H461.32z"/>
				<path class="st6" d="M474.4,156.83v1.91h-2.31v-1.91H474.4z M474.4,159.77v9.84h-2.31v-9.84H474.4z"/>
				<path class="st6" d="M488.52,159.76c0.74,0,1.52,0.21,2.15,0.75c0.46,0.39,0.8,0.96,0.95,1.63c0.06,0.25,0.08,0.53,0.09,0.81
					c0.05,0.8,0.03,5.9,0.01,6.67h-2.33c0-1.16,0-6.38,0-6.68c-0.01-0.69-0.14-0.83-0.33-0.99c-0.19-0.16-0.5-0.27-0.84-0.27h-5.03
					c-0.34,0-0.65,0.11-0.84,0.27c-0.19,0.16-0.32,0.3-0.33,0.99c0,0.11-0.03,6.68-0.03,6.68h-2.31v-9.84H482v0.67
					c0.62-0.49,1.37-0.68,2.07-0.68H488.52z"/>
				<path class="st6" d="M505.07,159.75c0.68,0,1.44,0.22,2.04,0.66v-0.65h2.31v10.9c0,1.99-1.76,2.95-3.19,2.95h-6.09
					c-1.43,0-3.19-0.96-3.19-2.95h2.31c0,0.44,0.2,1.04,1.17,1.04h5.51c0.97,0,1.18-0.6,1.17-0.82l-0.01-1.93
					c-0.6,0.44-1.36,0.66-2.04,0.66h-5.1c-1.43,0-3.22-0.96-3.22-2.95v-3.97c0-1.99,1.79-2.95,3.22-2.95H505.07z M499.05,162.7v3.97
					c0,0.44,0.23,1.04,1.2,1.04h5.68c0.98,0,1.17-0.6,1.17-1.04v-3.97c0-0.44-0.2-1.04-1.17-1.04h-5.68
					C499.28,161.66,499.05,162.26,499.05,162.7z"/>
				<path class="st6" d="M527.64,157.86l3.22,3l1.45,1.35l0.38,0.35l0.38-0.35l1.45-1.35l3.22-3h3.22l-3.22,3l-3.06,2.85l-0.38,0.35
					l-0.45,0.42v5.13h-2.31v-5.13l-0.45-0.42l-0.38-0.35l-3.06-2.85l-3.22-3H527.64z"/>
				<path class="st6" d="M553.16,159.76c1.44,0,3.19,0.96,3.19,2.95v3.97c0,1.99-1.76,2.95-3.19,2.95h-6.61
					c-1.44,0-3.22-0.96-3.22-2.95v-3.97c0-1.99,1.79-2.95,3.22-2.95H553.16z M546.84,161.67c-0.97,0-1.2,0.6-1.2,1.04v3.97
					c0,0.44,0.23,1.04,1.2,1.04h6.03c0.97,0,1.17-0.6,1.17-1.04v-3.97c0-0.44-0.2-1.04-1.17-1.04H546.84z"/>
				<path class="st6" d="M564.6,169.61c-0.74,0-1.52-0.21-2.15-0.75c-0.46-0.39-0.8-0.96-0.95-1.63c-0.06-0.25-0.08-0.53-0.09-0.8
					c-0.05-0.8-0.03-5.9-0.01-6.67h2.33c0,1.16,0,6.38,0,6.68c0.01,0.69,0.14,0.83,0.33,0.99c0.19,0.16,0.5,0.27,0.84,0.27h5.03
					c0.34,0,0.65-0.11,0.84-0.27c0.19-0.16,0.32-0.3,0.33-0.99c0-0.11,0.03-6.68,0.03-6.68h2.31v9.84h-2.31v-0.68
					c-0.62,0.49-1.37,0.68-2.07,0.68H564.6z"/>
				<path class="st6" d="M585.37,159.76c0.74,0,1.52,0.21,2.15,0.75c0.46,0.39,0.8,0.96,0.95,1.63c0.05,0.2,0.07,0.41,0.08,0.63
					h-2.31c-0.03-0.55-0.15-0.68-0.32-0.82c-0.19-0.16-0.5-0.27-0.84-0.27h-2.84c-0.34,0-0.65,0.11-0.84,0.27
					c-0.19,0.16-0.32,0.3-0.33,0.99c0,0.11-0.03,6.68-0.03,6.68h-2.31v-9.84h2.31v0.67c0.62-0.49,1.37-0.68,2.07-0.68H585.37z"/>
				<path class="st6" d="M617.17,157.86c0.74,0,1.52,0.21,2.15,0.75c0.63,0.54,1.04,1.42,1.04,2.43v5.4c0,1.01-0.41,1.89-1.04,2.43
					c-0.64,0.54-1.42,0.75-2.15,0.75H603.9v-11.75H617.17z M606.21,167.7h10.67c0.34,0,0.66-0.11,0.84-0.27
					c0.19-0.16,0.33-0.36,0.33-0.88v-5.63c0-0.52-0.14-0.72-0.33-0.88c-0.19-0.16-0.5-0.27-0.84-0.27h-10.67V167.7z"/>
				<path class="st6" d="M627.83,156.83v1.91h-2.31v-1.91H627.83z M627.83,159.77v9.84h-2.31v-9.84H627.83z"/>
				<path class="st6" d="M641.25,159.75c0.68,0,1.44,0.22,2.04,0.66v-0.65h2.31v10.9c0,1.99-1.76,2.95-3.19,2.95h-6.09
					c-1.44,0-3.19-0.96-3.19-2.95h2.31c0,0.44,0.2,1.04,1.17,1.04h5.51c0.97,0,1.18-0.6,1.17-0.82l-0.01-1.93
					c-0.6,0.44-1.36,0.66-2.04,0.66h-5.1c-1.44,0-3.22-0.96-3.22-2.95v-3.97c0-1.99,1.79-2.95,3.22-2.95H641.25z M635.23,162.7v3.97
					c0,0.44,0.23,1.04,1.2,1.04h5.68c0.98,0,1.17-0.6,1.17-1.04v-3.97c0-0.44-0.2-1.04-1.17-1.04h-5.68
					C635.46,161.66,635.23,162.26,635.23,162.7z"/>
				<path class="st6" d="M653.22,156.83v1.91h-2.31v-1.91H653.22z M653.22,159.77v9.84h-2.31v-9.84H653.22z"/>
				<path class="st6" d="M661.62,157.35v2.42h5.93v1.91h-5.93l0,4.77c0.01,0.69,0.14,0.83,0.33,0.99c0.19,0.16,0.5,0.27,0.84,0.27
					h1.26c0.34,0,0.65-0.11,0.84-0.27c0.17-0.14,0.29-0.27,0.32-0.79h2.3c-0.02,0.18-0.04,0.44-0.08,0.59
					c-0.15,0.67-0.49,1.24-0.95,1.63c-0.63,0.54-1.42,0.75-2.15,0.75h-1.83c-0.74,0-1.52-0.21-2.15-0.75
					c-0.46-0.39-0.8-0.96-0.95-1.63c-0.06-0.25-0.09-0.81-0.09-0.81l0-4.76h-1.48v-1.91h1.48v-2.42H661.62z"/>
				<path class="st6" d="M675.66,159.69h6.15c1.44,0,3.19,0.96,3.19,2.95v6.97h-2.31v-0.63c-0.61,0.44-1.37,0.63-2.06,0.63h-5.46
					c-1.44,0-3.19-0.84-3.19-2.97c0-2.13,1.76-3.09,3.19-3.09h5.46c0.69,0,1.45,0.22,2.06,0.69v-1.6c0-0.44-0.2-1.04-1.17-1.04
					h-5.57c-0.97,0-1.17,0.6-1.17,1.04h-2.31C672.47,160.65,674.22,159.69,675.66,159.69L675.66,159.69z M674.46,166.64
					c0,0.58,0.2,1.07,1.17,1.07h5.87c0.97,0,1.17-0.48,1.17-1.07c0-0.58-0.2-1.18-1.17-1.18h-5.87
					C674.65,165.46,674.46,166.06,674.46,166.64z"/>
				<path class="st6" d="M692.51,156.83h0.01v12.78h-2.31v-12.78H692.51z"/>
				<path class="st6" d="M732.99,157.86l-6.2,11.73l0.01,0.02h-2.55l-3.95-8.49l-3.95,8.49h-2.55l0.01-0.02l-6.2-11.73h2.6
					l4.83,9.15l4.25-9.15h2.01l4.25,9.15l4.83-9.15H732.99z"/>
				<path class="st6" d="M745.83,159.76c1.43,0,3.19,0.96,3.19,2.95v3.97c0,1.99-1.76,2.95-3.19,2.95h-6.61
					c-1.44,0-3.22-0.96-3.22-2.95v-3.97c0-1.99,1.79-2.95,3.22-2.95H745.83z M739.5,161.67c-0.97,0-1.2,0.6-1.2,1.04v3.97
					c0,0.44,0.23,1.04,1.2,1.04h6.03c0.97,0,1.17-0.6,1.17-1.04v-3.97c0-0.44-0.2-1.04-1.17-1.04H739.5z"/>
				<path class="st6" d="M760.78,159.76c0.74,0,1.52,0.21,2.15,0.75c0.46,0.39,0.8,0.96,0.95,1.63c0.05,0.2,0.07,0.41,0.08,0.63
					h-2.31c-0.03-0.55-0.15-0.68-0.32-0.82c-0.19-0.16-0.5-0.27-0.84-0.27h-2.84c-0.34,0-0.65,0.11-0.84,0.27
					c-0.19,0.16-0.32,0.3-0.33,0.99c0,0.11-0.03,6.68-0.03,6.68h-2.31v-9.84h2.31v0.67c0.62-0.49,1.37-0.68,2.07-0.68H760.78z"/>
				<path class="st6" d="M770.84,156.83h0.01v12.78h-2.31v-12.78H770.84z"/>
				<path class="st6" d="M779.16,169.62c-1.44,0-3.22-0.96-3.22-2.95v-3.97c0-1.99,1.79-2.95,3.22-2.95h5.1
					c0.68,0,1.44,0.22,2.04,0.66v-3.59l2.31-0.02v12.81h-2.31v-0.65c-0.6,0.44-1.36,0.66-2.04,0.66H779.16z M779.46,167.71h5.68
					c0.97,0,1.17-0.6,1.17-1.04v-3.97c0-0.44-0.2-1.04-1.17-1.04h-5.68c-0.97,0-1.2,0.6-1.2,1.04v3.97
					C778.26,167.12,778.48,167.71,779.46,167.71z"/>
			</g>
		</g>
	</g>
</g>
</svg>
